<svg xmlns="http://www.w3.org/2000/svg" viewBox="0 0 404.83 106.42"><title>logo</title><g id="Layer_2" data-name="Layer 2"><g id="Layer_1-2" data-name="Layer 1"><path d="M313.71,42.89c2.39,0,4.62-1.32,6.71-4s3.12-5,3.12-7.24A5.28,5.28,0,0,0,322,27.62a5.41,5.41,0,0,0-3.81-1.41q-3.43,0-6.63,4.11t-3.2,7.47a4.57,4.57,0,0,0,1.71,3.65A5.53,5.53,0,0,0,313.71,42.89Z" style="fill:#4d4d4d"/><path d="M395.11,84.79q-3.09,2.28-5.29,2.28a4.69,4.69,0,0,1-3.28-1.25,4.3,4.3,0,0,1-1.37-3.32,11,11,0,0,1,2.4-6.7q2.4-3.19,7.24-8.57t4.83-6.82a15.88,15.88,0,0,0-1.6-5.9c-1.06-2.47-2.18-3.67-3.35-3.62-.61,0-2,.91-4.19,2.74s-4.71,4.06-7.58,6.7-6.82,6.27-11.84,10.86S360,81.18,353,87.38Q360,78.25,364.33,71.8A112.55,112.55,0,0,0,371,61c1.52-2.92,2.29-4.94,2.29-6a6.23,6.23,0,0,0-1.49-4.23A4.79,4.79,0,0,0,368,49q-3.73,0-9.1,4.16a123.33,123.33,0,0,0-11.66,10.43Q341,69.86,335.73,75.19c-3.51,3.56-5.69,5.33-6.55,5.33-1.07,0-1.6-.68-1.6-2q0-1.45,2.05-4.69A30,30,0,0,1,334,68.33a57,57,0,0,0,7-7.54c1.86-2.44,2.78-4.19,2.78-5.25a2.65,2.65,0,0,0-1.52-2.4,7.33,7.33,0,0,0-3.73-.88,9.7,9.7,0,0,0-6.82,3.16A76.31,76.31,0,0,0,323.39,66a71.52,71.52,0,0,0-4.84,8.53,16.76,16.76,0,0,0-1.16,3.69,88.89,88.89,0,0,1-9.66,7.17A15.44,15.44,0,0,1,299.85,88a7.75,7.75,0,0,1-5.34-1.83,5.86,5.86,0,0,1-2.05-4.57,8.84,8.84,0,0,1,2-5.71A120.16,120.16,0,0,1,303.12,67a33.19,33.19,0,0,0,5.38-7.39q3-5.18,3-7.61,0-3.59-4.64-3.59-9,0-19.81,16.84c-1.52,2.49-2.57,4.32-3.12,5.49a20.74,20.74,0,0,0-1.45,4.45c-.14.62-.25,1.26-.34,1.9-4.15,3.84-7,6.45-8.5,7.82A41.43,41.43,0,0,1,269,88.56a7.55,7.55,0,0,1-4.12,1.49,6.7,6.7,0,0,1-5.83-3A13.75,13.75,0,0,1,257,79.08a34.56,34.56,0,0,1,.76-6.1q15.39-16.06,24-31.5t8.61-26a15,15,0,0,0-.54-4.83,2.06,2.06,0,0,0-2.13-1.41,7.68,7.68,0,0,0-3.58,1.37q-5.64,3.27-12.23,11.46a137.19,137.19,0,0,0-12.72,19.2A133.51,133.51,0,0,0,249.34,63a66.57,66.57,0,0,0-3.46,14.79c-2.86,2.35-5.41,4.32-7.62,5.86a42.74,42.74,0,0,1-7.39,4.19,17.15,17.15,0,0,1-6.75,1.56,27.47,27.47,0,0,1-4.34-.46A71.41,71.41,0,0,0,231,80.26a32.84,32.84,0,0,0,6.63-8.84,21.48,21.48,0,0,0,2.28-9.64,26.94,26.94,0,0,0-.61-6q-.6-2.65-1.71-6.59a23.93,23.93,0,0,1-1.1-5.37,8.73,8.73,0,0,1,.3-2.59l-.46-1.44a7.71,7.71,0,0,0-3.42-.92q-6.4,0-8.08,9.37-7.4,8.31-27,29v.31c-4.22,3.29-7.41,5.61-9.53,6.92a11.76,11.76,0,0,1-6,2.14q-3.12,0-3.12-4a15.13,15.13,0,0,1,1.6-5.45,40.13,40.13,0,0,1,3.73-6.67l6.86-9.9q2.9-4.19,3.85-5.75a12.09,12.09,0,0,0,1.25-2.55,8.81,8.81,0,0,0,.31-2.59c0-2.34-.22-3.89-.65-4.65A2.59,2.59,0,0,0,193.58,44a6.17,6.17,0,0,0-4,1.79q-2.06,1.78-7.69,7.73-2.44,2.6-6.36,7.73a52.84,52.84,0,0,1-6.9,7.73q-4,3.44-9.1,7.89t-7.2,6a6.66,6.66,0,0,1-3.05,1.56c-1.67,0-2.51-1.09-2.51-3.28a24.36,24.36,0,0,1,1.45-6.85,100.18,100.18,0,0,0,11.54-10.1A56.75,56.75,0,0,0,167,55.46q2.24-3.59,2.24-5c0-.46-.73-.9-2.21-1.34a16.46,16.46,0,0,0-4.64-.64,13.14,13.14,0,0,0-4.84.64,9,9,0,0,0-3.05,2.48l-3.84,4.5q-3.81,4.34-6.44,7.77A49.87,49.87,0,0,0,140,70.28a21.5,21.5,0,0,0-2.17,5.37c-.13.56-.23,1.16-.32,1.77-2.58,1.92-4.75,3.4-6.31,4.44-2.59,1.71-3.06,1.92-6.28,4.07l-4.84,3.2a31.42,31.42,0,0,1-4.65,2.59,11.22,11.22,0,0,1-4.53.92A4.76,4.76,0,0,1,107,91.11c-.84-1-1.26-2.64-1.26-4.87q0-5.42,3.92-14.74A123.66,123.66,0,0,1,121.2,50.85a182.67,182.67,0,0,1,18-22.43q5.64-6,7.43-8.23a6.54,6.54,0,0,0,1.79-3.81q0-1.29-3-5.87c-2-3-3.67-4.57-5-4.57a6.91,6.91,0,0,0-3.5,1.14,32.5,32.5,0,0,0-4.35,3.28l-6.66,5.83q-4.23,3.69-8.42,6.89a92.58,92.58,0,0,0-7.62,6.86q-4.56,4.5-13.94,14.24t-18,19Q87,47.78,92.56,38T101,22q2.9-6.25,2.89-8.46a10.69,10.69,0,0,0-2.09-6.29q-2.1-2.92-4.77-2.93-1.9,0-7.27,3.32a97,97,0,0,0-11.54,8.53A100.15,100.15,0,0,0,67.12,27.12q-3.66,4.18-7.2,8.3t-7.13,8.46q-3.57,4.34-7.54,9.45,5-10.51,8.42-17.53T59,23.5a26.88,26.88,0,0,0,2-9.18,20.32,20.32,0,0,0-1.33-4.84,29.78,29.78,0,0,0-3.24-6.62Q54.55,0,52.41,0,48.15,0,37.14,4.38a175,175,0,0,0-25,12.76,7,7,0,0,1,1.9-3.5,51.17,51.17,0,0,1,4.65-4.12c.41-.4.61-.71.61-.91,0-.36-.2-.53-.61-.53s-2.88,1.67-7.27,5-7.13,6-8.19,8.08a34.9,34.9,0,0,0-2.21,8.11A55.88,55.88,0,0,0,0,36.64c0,1.88.84,2.82,2.51,2.82s4.47-1,8.08-2.86S19,32,25,28.34s10.9-6.45,14.82-8.53,6.67-3.13,8.3-3.13c2,0,3,1.1,3,3.28s-.76,4.94-2.28,8.57a117.89,117.89,0,0,1-7.32,13.86q-5,8.43-11.5,17.79T13.41,83a4.65,4.65,0,0,0-.92,2.51c0,3,.57,5.07,2.33,9.18,2.89,6.8,3,8.42,4.17,8.54s2.12-1.27,4.7-5.22c3.72-5.68,5.52-8.56,5.94-9.22q12.81-20,24.57-35.27T74,30.51q8-7.73,10.9-7.73c.91,0,1.37.79,1.37,2.36a14.87,14.87,0,0,1-1.72,6.32q-1.71,3.59-5.29,9.6-5.1,8.69-9.37,14.78t-10.78,15q-6.51,8.88-8.46,12.3a13.17,13.17,0,0,0-1.94,6.4,26.74,26.74,0,0,0,1.56,9.18Q51.8,103,53.94,103a4.69,4.69,0,0,0,2.89-1.6,71.68,71.68,0,0,0,5.75-6.9q4.08-5.3,4.84-6.21Q81,71.16,92.67,58.74a267,267,0,0,1,19.16-18.82q7.47-6.41,8.92-6.4a1.16,1.16,0,0,1,.83.38,1.24,1.24,0,0,1,.39.91q0,.91-6.4,8.23-8.61,9.9-14.33,17.87a77.46,77.46,0,0,0-8.79,15.42,39.18,39.18,0,0,0-3.09,15.09,16,16,0,0,0,3.58,10.81,11.56,11.56,0,0,0,9.22,4.19,14.94,14.94,0,0,0,5.67-1.41,55.12,55.12,0,0,0,8.35-4.72,123.69,123.69,0,0,0,10.09-7.46Q130.91,89,137.35,83a27.17,27.17,0,0,0,1.26,6.82,15.88,15.88,0,0,0,3.77,6.47,7.48,7.48,0,0,0,5.33,2.4q3.66,0,9.41-6.17t16.8-20.8q-4.26,9.3-6.17,14.21a23.19,23.19,0,0,0-1.9,7.81q0,7.62,6.4,7.62a11.52,11.52,0,0,0,5.94-1.91,56.72,56.72,0,0,0,7.39-5.64c2.69-2.36,6.8-6.08,12.29-11.14a29.07,29.07,0,0,0,.77,5.43,16.4,16.4,0,0,0,4.46,7q6.09,6.09,13.25,6.09,5.57,0,13.26-4.91a109.47,109.47,0,0,0,16.11-13.15c.17,5.59,1.18,10.19,3.05,13.76q3.09,5.91,8.49,5.9,9.6,0,24.7-19.53a32.62,32.62,0,0,0,3,11.84q3,6.55,9.29,6.55,4.5,0,10.89-4.84a72,72,0,0,0,12-12,24.48,24.48,0,0,0,2.28,9.2c1.57,3.25,3.28,4.87,5.1,4.87a3.81,3.81,0,0,0,2.75-1.52,74.6,74.6,0,0,0,4.53-6.06A81.88,81.88,0,0,1,337.4,84q9.08-10,12.23-13.22c2.11-2.1,3.72-3.16,4.84-3.16A1.35,1.35,0,0,1,356,69.1a3.22,3.22,0,0,1-.45,1.9q-5.49,9.14-8.46,15t-3,8.19q0,5.63,4,5.63,3.66,0,7.92-4.72c1.47-1.68,3.48-4,6-6.9s5.82-6.33,9.83-10.24,8.61-8,13.79-12.19l-5.72,9.41q-3.12,5.14-5,8.8a46.9,46.9,0,0,0-2.82,6.32,16.15,16.15,0,0,0-.92,5.26,6.46,6.46,0,0,0,1.6,4.45,5.09,5.09,0,0,0,4,1.79,14.55,14.55,0,0,0,6.67-2.24,65,65,0,0,0,9.41-6.78q5.4-4.55,12-10.78V76.64Q398.2,82.51,395.11,84.79ZM268.61,40q5.79-11.08,10.44-14.89a4.44,4.44,0,0,1,1.75-.84c.81,0,1.22.59,1.22,1.75a19.82,19.82,0,0,1-1.86,6.78A86.92,86.92,0,0,1,275,43a111.39,111.39,0,0,1-7,10.59,75.77,75.77,0,0,1-7.65,8.83A88.61,88.61,0,0,1,268.61,40Zm-53,45.9a41.29,41.29,0,0,0-4.72-6.47q-1.68-1.68-6.25-2.67,15.47-15.16,20.19-20.49l1.37,11.12c0,.41.09.81.12,1.22s0,.86,0,1.37q0,6.4-2.78,10.09A18.33,18.33,0,0,1,215.59,85.93Z" style="fill:#4d4d4d"/></g></g></svg>